<?xml version="1.0" encoding="utf-8"?>
<!-- Generator: Adobe Illustrator 26.4.1, SVG Export Plug-In . SVG Version: 6.00 Build 0)  -->
<svg version="1.1" id="Layer_1" xmlns="http://www.w3.org/2000/svg" xmlns:xlink="http://www.w3.org/1999/xlink" x="0px" y="0px"
	 viewBox="0 0 129.79 129.79" style="enable-background:new 0 0 129.79 129.79;" xml:space="preserve">
<style type="text/css">
	.st0{fill:#FDD200;}
	.st1{fill:none;}
</style>
<g>
	<g>
		<polygon points="14.39,96.26 42.87,69.34 42.87,61.33 36.42,65.12 15.73,33.08 56.44,1.49 94.04,6.6 113.39,39.53 105.38,52.21 
			114.95,60.22 115.4,98.49 87.14,128.3 43.31,123.85 		"/>
		<polygon class="st0" points="32.63,88.48 49.99,72.23 63.56,84.69 77.35,81.13 76.91,73.79 57.77,67.56 57.33,54.66 74.68,42.64 
			70.23,38.42 46.87,50.21 32.41,27.52 57.77,8.16 90.26,12.83 106.05,38.64 96.04,53.32 108.05,63.11 109.61,94.48 92.04,113.62 
			53.77,110.28 		"/>
	</g>
	<rect class="st1" width="129.79" height="129.79"/>
</g>
</svg>
