<?xml version="1.0" encoding="utf-8"?>
<!-- Generator: Adobe Illustrator 27.9.0, SVG Export Plug-In . SVG Version: 6.00 Build 0)  -->
<svg version="1.1" id="Layer_1" xmlns="http://www.w3.org/2000/svg" xmlns:xlink="http://www.w3.org/1999/xlink" x="0px" y="0px"
	 viewBox="0 0 129.8 129.8" style="enable-background:new 0 0 129.8 129.8;" xml:space="preserve">
<style type="text/css">
	.st0{fill:#E52D1E;}
	.st1{fill:none;}
</style>
<g>
	<g>
		<polygon points="14.4,96.3 42.9,69.3 42.9,61.3 36.4,65.1 15.7,33.1 56.4,1.5 94,6.6 113.4,39.5 105.4,52.2 114.9,60.2 
			115.4,98.5 87.1,128.3 43.3,123.8 		"/>
		<polygon class="st0" points="32.6,88.5 50,72.2 63.6,84.7 77.3,81.1 76.9,73.8 57.8,67.6 57.3,54.7 74.7,42.6 70.2,38.4 
			46.9,50.2 32.4,27.5 57.8,8.2 90.3,12.8 106.1,38.6 96,53.3 108.1,63.1 109.6,94.5 92,113.6 53.8,110.3 		"/>
	</g>
	<rect y="0" class="st1" width="129.8" height="129.8"/>
</g>
</svg>
