<?xml version="1.0" encoding="utf-8"?>
<!-- Generator: Adobe Illustrator 26.4.1, SVG Export Plug-In . SVG Version: 6.00 Build 0)  -->
<svg version="1.1" id="Layer_1" xmlns="http://www.w3.org/2000/svg" xmlns:xlink="http://www.w3.org/1999/xlink" x="0px" y="0px"
	 viewBox="0 0 129.79 129.79" style="enable-background:new 0 0 129.79 129.79;" xml:space="preserve">
<style type="text/css">
	.st0{fill:#47AC34;}
	.st1{fill:none;}
</style>
<g>
	<g>
		<polygon points="5.82,98.82 5.6,62.33 37.64,7.6 44.98,0.93 94.37,4.27 101.27,48.54 124.18,50.32 124.18,89.7 116.17,97.49 
			106.39,97.26 109.05,115.06 101.71,123.29 49.21,128.86 49.43,98.82 		"/>
		<path class="st0" d="M117.51,56.77l-22.69-0.89l-6.01-45.16L48.54,7.83L19.62,56.99l1.56,26.92h42.05l1.56,30.48l36.71-4
			l-3.56-26.03l19.36-1.11L117.51,56.77z M50.65,55.82l10.87-13.92l1.02,14.77L50.65,55.82z"/>
	</g>
	<rect class="st1" width="129.79" height="129.79"/>
</g>
</svg>