<?xml version="1.0" encoding="utf-8"?>
<!-- Generator: Adobe Illustrator 26.4.1, SVG Export Plug-In . SVG Version: 6.00 Build 0)  -->
<svg version="1.1" id="Layer_1" xmlns="http://www.w3.org/2000/svg" xmlns:xlink="http://www.w3.org/1999/xlink" x="0px" y="0px"
	 viewBox="0 0 123.7 125.7" style="enable-background:new 0 0 123.7 125.7;" xml:space="preserve">
<style type="text/css">
	.st0{fill:#0FA9E2;}
	.st1{fill:none;}
</style>
<g>
	<polygon points="28.25,71.86 0,31.59 12.01,22.25 45.39,0 76.53,0 100.56,17.8 112.13,65.63 105.45,70.75 112.35,70.75 
		123.7,119.03 116.36,125.7 22.03,124.81 8.23,95.44 48.95,60.74 46.94,57.62 	"/>
	<polygon class="st0" points="22.92,89.21 64.07,56.73 61.63,49.61 55.17,43.38 38.49,55.17 18.24,26.03 47.39,6.01 74.31,6.67 
		95.22,21.8 105.45,61.85 78.53,79.87 107.23,77.64 115.91,113.02 32.48,111.02 	"/>
</g>
<rect x="-145.16" y="-44.83" class="st1" width="129.79" height="129.79"/>
</svg>
